<?xml version="1.0" encoding="UTF-8"?><svg id="a" xmlns="http://www.w3.org/2000/svg" xmlns:xlink="http://www.w3.org/1999/xlink" viewBox="0 0 296 127.23"><defs><linearGradient id="b" x1="23.15" y1="63.34" x2="273.52" y2="63.34" gradientUnits="userSpaceOnUse"><stop offset="0" stop-color="#eb0000"/><stop offset="0" stop-color="#e90804"/><stop offset=".06" stop-color="#e32d18"/><stop offset=".11" stop-color="#df4e29"/><stop offset=".16" stop-color="#da6837"/><stop offset=".22" stop-color="#d77c42"/><stop offset=".28" stop-color="#d58b4a"/><stop offset=".37" stop-color="#d4934e"/><stop offset=".5" stop-color="#d49650"/><stop offset=".62" stop-color="#d19651"/><stop offset=".69" stop-color="#c99754"/><stop offset=".75" stop-color="#ba995b"/><stop offset=".8" stop-color="#a69c64"/><stop offset=".85" stop-color="#8c9f70"/><stop offset=".9" stop-color="#6ba47f"/><stop offset=".94" stop-color="#45a991"/><stop offset=".98" stop-color="#1aafa5"/><stop offset="1" stop-color="#00b3b1"/></linearGradient></defs><path d="m242.38,44.84c1.43,0,2.51-1.1,2.53-2.55.02-1.47-1.06-2.64-2.51-2.68-2.68-.09-5.69-.04-8.37,0-2.18.04-3.68,1.64-3.65,3.87v1.77c-.02,2.62-.06,7.48,0,11.31,0,.11-.04.26-.19.35-1.9.95-4.02,2.08-5.97,3.14-.8.48-1.32,1.34-1.36,2.27-.02.91.43,1.73,1.19,2.23l.15.09c1.79,1.15,3.14,1.99,4.76,3.2l.54.37c.28.19.84.56.93.67.02.04.04.22,0,.84-.02.26-.04.56-.04.89-.02.76-.02,4.22,0,7.87v5.25c0,1.82,1.69,3.2,3.22,3.2l5.28-.04c1.34,0,2.64,0,3.59.02.84,0,1.62-.45,2.03-1.19.5-.84.5-1.99,0-2.83-.48-.8-1.25-1.23-2.1-1.19-1.1.02-3.22,0-5.13-.02h-1.23c-.15,0-.3,0-.45-.02,0-4.89-.02-12.43-.04-13.49,0-1.97-1.97-3.35-2.59-3.81l-.84-.58c-.3-.22-.61-.43-.89-.63-.26-.19-.52-.41-.78-.58.99-.54,1.97-1.1,3.14-1.77,1.23-.71,1.99-1.88,2.01-3.14.04-4,.04-10.01.02-12.8h.37c1.95,0,4.93-.02,6.4,0Zm29.78,15.2c-1.67-.89-3.83-2.08-5.95-3.14-.13-.09-.22-.19-.22-.35.06-3.83.02-8.69,0-11.31v-1.77c.02-2.23-1.47-3.83-3.65-3.87-2.42-.04-5.56-.06-8.37,0-1.45.06-2.53,1.21-2.51,2.68.02,1.43,1.15,2.55,2.53,2.55.99-.02,2.7,0,4.28,0h2.49c-.02,2.77-.02,8.78.02,12.8.02,1.28.78,2.44,2.01,3.14,1.17.67,2.16,1.23,3.14,1.77-.04.04-.11.09-.15.11l-.61.45c-.32.24-.67.48-.99.71l-.74.52c-1.75,1.21-2.62,2.46-2.62,3.78-.02,1.08-.04,8.82-.04,13.51h-.45c-.39.02-.8.02-1.23.02-1.9.02-4,.04-5.08.02-.91-.04-1.67.37-2.12,1.19-.52.84-.52,1.99-.02,2.83.43.76,1.19,1.19,2.08,1.19.91-.02,2.21,0,3.55,0l5.28.02c1.49,0,3.22-1.41,3.22-3.2v-5.25c.02-3.65.02-7.11,0-7.87,0-.32,0-.61-.02-.89-.04-.5-.04-.71-.04-.82.15-.13.45-.37,1.12-.82l.39-.26c1.58-1.17,2.9-2.03,4.74-3.18l.17-.09c.74-.5,1.17-1.3,1.17-2.18v-.06c-.02-.93-.54-1.79-1.36-2.25Zm-202.22-3.14c1.62,0,2.96-1.32,2.96-2.96s-1.34-2.96-2.96-2.96h-6.96l2.03-9.56c0-1.64-1.32-2.96-2.96-2.96s-2.96,1.32-2.96,2.96l-2.03,9.56h-12.84l2.03-9.56c0-1.64-1.32-2.96-2.96-2.96s-2.96,1.32-2.96,2.96l-2.03,9.56h-12.17c-1.64,0-2.96,1.32-2.96,2.96s1.32,2.96,2.96,2.96h10.92l-2.72,12.84h-8.2c-1.64,0-2.96,1.32-2.96,2.96s1.32,2.98,2.96,2.98h6.94l-2.03,9.54c0,1.64,1.34,2.98,2.98,2.98s2.96-1.34,2.96-2.98l2.01-9.54h12.84l-2.01,9.54c0,1.64,1.32,2.98,2.96,2.98s2.96-1.34,2.96-2.98l2.01-9.54h12.2c1.62,0,2.96-1.34,2.96-2.98s-1.34-2.96-2.96-2.96h-10.92l2.7-12.84h8.22Zm-16.84,12.84h-12.84l2.7-12.84h12.84l-2.7,12.84Z" style="fill:url(#b);"/><path d="m104.3,88.3c-3.39,0-6.48-.57-9.28-1.7-2.8-1.13-5.19-2.68-7.18-4.66-1.99-1.98-3.54-4.31-4.64-7.01-1.1-2.7-1.65-5.61-1.65-8.75v-1.74c0-3.64.58-6.92,1.76-9.83,1.17-2.91,2.74-5.39,4.7-7.46,1.96-2.06,4.25-3.64,6.86-4.75,2.61-1.1,5.36-1.65,8.24-1.65,3.33,0,6.27.56,8.81,1.67s4.67,2.68,6.38,4.7c1.71,2.02,3,4.41,3.88,7.18.87,2.77,1.31,5.8,1.31,9.11v4.28h-31.78c.17,1.78.61,3.43,1.32,4.96.71,1.52,1.63,2.85,2.77,3.96,1.14,1.12,2.49,1.99,4.02,2.63,1.54.63,3.23.95,5.06.95,2.57,0,4.94-.51,7.1-1.53,2.16-1.02,3.92-2.41,5.27-4.19l5.51,5.17c-.73,1.1-1.68,2.17-2.84,3.2-1.16,1.03-2.51,1.95-4.07,2.75-1.55.8-3.3,1.45-5.23,1.95-1.94.49-4.05.74-6.33.74Zm-1.23-39.36c-1.41,0-2.73.25-3.94.76-1.22.51-2.3,1.25-3.26,2.22-.96.97-1.77,2.16-2.43,3.56-.66,1.4-1.14,2.99-1.42,4.77h21.48v-.76c-.08-1.36-.35-2.66-.78-3.92-.44-1.26-1.08-2.38-1.93-3.37-.85-.99-1.92-1.78-3.2-2.37-1.28-.59-2.79-.89-4.51-.89Z" style="fill:#fff;"/><path d="m128.21,22.38h24.78v56.69h13.98v8.39h-38.77v-8.39h14.57V30.81h-14.57v-8.43Z" style="fill:#fff;"/><path d="m215.91,65c0,3.33-.4,6.43-1.19,9.28-.79,2.85-1.95,5.32-3.47,7.39-1.52,2.08-3.4,3.7-5.61,4.87-2.22,1.17-4.76,1.76-7.65,1.76-2.6,0-4.89-.42-6.88-1.27-1.99-.85-3.71-2.06-5.15-3.64v21.69h-10.13v-63.47h9.32l.42,4.62c1.47-1.75,3.21-3.1,5.23-4.05,2.02-.95,4.37-1.42,7.06-1.42,2.91,0,5.49.57,7.73,1.69,2.25,1.13,4.13,2.72,5.65,4.77,1.53,2.05,2.69,4.51,3.47,7.37.79,2.87,1.19,6.04,1.19,9.51v.89Zm-10.13-.89c0-2.06-.21-4-.64-5.83-.42-1.82-1.07-3.42-1.95-4.79-.88-1.37-1.99-2.45-3.35-3.24-1.35-.79-2.96-1.19-4.83-1.19-2.26,0-4.12.48-5.59,1.44-1.47.96-2.63,2.25-3.47,3.86v20.51c.85,1.58,2,2.87,3.45,3.86,1.45.99,3.35,1.48,5.7,1.48,1.86,0,3.47-.41,4.83-1.23,1.36-.82,2.46-1.92,3.33-3.3.86-1.38,1.5-2.99,1.91-4.83.41-1.84.61-3.79.61-5.85v-.89Z" style="fill:#fff;"/></svg>