<?xml version="1.0" encoding="UTF-8"?><svg id="a" xmlns="http://www.w3.org/2000/svg" xmlns:xlink="http://www.w3.org/1999/xlink" viewBox="0 0 101.82 101.82"><defs><linearGradient id="b" x1="18.16" y1="50.91" x2="83.66" y2="50.91" gradientUnits="userSpaceOnUse"><stop offset="0" stop-color="#eb0000"/><stop offset=".06" stop-color="#e90a05"/><stop offset=".17" stop-color="#e52513"/><stop offset=".31" stop-color="#de512b"/><stop offset=".48" stop-color="#d58d4b"/><stop offset=".5" stop-color="#d49650"/><stop offset="1" stop-color="#00b3b1"/></linearGradient></defs><circle cx="50.91" cy="50.91" r="44.63"/><path d="m64.48,39.52c.88,0,1.55-.68,1.56-1.57.01-.91-.65-1.63-1.55-1.65-1.65-.05-3.5-.03-5.16,0-1.35.03-2.26,1.01-2.25,2.38v1.09c-.01,1.61-.04,4.61,0,6.97,0,.07-.03.16-.12.21-1.17.59-2.48,1.28-3.68,1.93-.49.29-.81.83-.84,1.4-.01.56.27,1.07.73,1.37l.09.05c1.11.71,1.93,1.23,2.93,1.97l.33.23c.17.12.52.35.57.41.01.03.03.13,0,.52-.01.16-.03.35-.03.55-.01.47-.01,2.6,0,4.85v3.24c0,1.12,1.04,1.97,1.98,1.97l3.25-.03c.83,0,1.63,0,2.21.01.52,0,1-.28,1.25-.73.31-.52.31-1.23,0-1.75-.29-.49-.77-.76-1.29-.73-.68.01-1.98,0-3.16-.01h-.76c-.09,0-.19,0-.28-.01,0-3.01-.01-7.66-.03-8.31,0-1.21-1.21-2.06-1.6-2.34l-.52-.36c-.19-.13-.37-.27-.55-.39-.16-.12-.32-.25-.48-.36.61-.33,1.21-.68,1.93-1.09.76-.44,1.23-1.16,1.24-1.93.03-2.46.03-6.17.01-7.89h.23c1.2,0,3.04-.01,3.94,0Zm18.34,9.36c-1.03-.55-2.36-1.28-3.66-1.93-.08-.05-.13-.12-.13-.21.04-2.36.01-5.35,0-6.97v-1.09c.01-1.37-.91-2.36-2.25-2.38-1.49-.03-3.42-.04-5.16,0-.89.04-1.56.75-1.55,1.65.01.88.71,1.57,1.56,1.57.61-.01,1.67,0,2.64,0h1.53c-.01,1.71-.01,5.41.01,7.89.01.79.48,1.51,1.24,1.93.72.41,1.33.76,1.93,1.09-.03.03-.07.05-.09.07l-.37.28c-.2.15-.41.29-.61.44l-.45.32c-1.08.75-1.61,1.52-1.61,2.33-.01.67-.03,5.43-.03,8.33h-.28c-.24.01-.49.01-.76.01-1.17.01-2.46.03-3.13.01-.56-.03-1.03.23-1.31.73-.32.52-.32,1.23-.01,1.75.27.47.73.73,1.28.73.56-.01,1.36,0,2.18,0h3.25c.92.01,1.98-.85,1.98-1.96v-3.24c.01-2.25.01-4.38,0-4.85,0-.2,0-.37-.01-.55-.03-.31-.03-.44-.03-.51.09-.08.28-.23.69-.51l.24-.16c.97-.72,1.78-1.25,2.92-1.96l.11-.05c.45-.31.72-.8.72-1.35v-.04c-.01-.57-.33-1.11-.84-1.39Zm-35.83-1.93c1,0,1.82-.81,1.82-1.82s-.83-1.82-1.82-1.82h-4.29l1.25-5.89c0-1.01-.81-1.82-1.83-1.82s-1.82.81-1.82,1.82l-1.25,5.89h-7.91l1.25-5.89c0-1.01-.81-1.82-1.82-1.82s-1.82.81-1.82,1.82l-1.25,5.89h-7.5c-1.01,0-1.83.81-1.83,1.82s.81,1.82,1.83,1.82h6.73l-1.68,7.91h-5.05c-1.01,0-1.83.81-1.83,1.82s.81,1.84,1.83,1.84h4.28l-1.25,5.87c0,1.01.83,1.84,1.84,1.84s1.82-.83,1.82-1.84l1.24-5.87h7.91l-1.24,5.87c0,1.01.81,1.84,1.82,1.84s1.83-.83,1.83-1.84l1.24-5.87h7.51c1,0,1.82-.83,1.82-1.84s-.83-1.82-1.82-1.82h-6.73l1.67-7.91h5.06Zm-10.38,7.91h-7.91l1.67-7.91h7.91l-1.67,7.91Z" style="fill:url(#b);"/></svg>