<svg version="1.1" xmlns="http://www.w3.org/2000/svg" viewBox="0 0 1094.2734375 614.87890625" width="2188.546875" height="1229.7578125">
  <!-- svg-source:excalidraw -->
  
  <defs>
    <style>
      @font-face {
        font-family: "Virgil";
        src: url("https://excalidraw.com/FG_Virgil.woff2");
      }
      @font-face {
        font-family: "Cascadia";
        src: url("https://excalidraw.com/Cascadia.woff2");
      }
    </style>
  </defs>
  <rect x="0" y="0" width="1094.2734375" height="614.87890625" fill="#ffffff"></rect><g transform="translate(27.71875 42.9140625) rotate(0 50.51953125 44.91015625)"><path d="M0.6444283686578274 -0.7982165180146694 C35.9621311457202 0.6583194007088606, 70.6486045221478 -0.8756296168158586, 101.09129762277007 1.4416112340986729 M-0.48308625631034374 0.943321643397212 C29.470998138787404 1.2887922619569872, 60.44910177521816 1.5248801206338976, 100.90129104442894 -0.36593187041580677 M100.7446951828897 -1.4047642312943935 C100.22061540333424 29.434848940595113, 99.79213728157673 54.235830673275636, 100.02969538792968 90.66044575348496 M101.09829679317772 -0.7014340180903673 C99.65872457034318 19.178100626204106, 100.35857745415895 36.06532379283745, 101.64994284696877 89.62554102949798 M100.27406584843993 90.66694504395127 C68.64403619223012 89.1010924320652, 35.85030643226054 90.35458085350533, -1.6600539721548557 89.35502261295915 M100.66840550489724 89.83650189451873 C70.24671606967021 89.51228413943129, 39.867234352338706 90.12912837628203, -0.9424526374787092 90.6890487652272 M1.5590784512460232 88.09623259678483 C0.38240153863225723 54.05172501063061, 0.06089515759740616 20.77058793839241, 0.95405637845397 1.2554443515837193 M0.2915098983794451 89.29461717419326 C0.4356362859495857 56.04852171732491, 0.22647351424777296 21.625910681232924, 0.15907773561775684 0.8413760047405958" stroke="#000000" stroke-width="1" fill="none"></path></g><g transform="translate(45.96484375 61.58984375) rotate(0 16.5 11.5)"><text x="0" y="18" font-family="Helvetica, Segoe UI Emoji" font-size="20px" fill="#000000" text-anchor="start" style="white-space: pre;" direction="ltr">IDE</text></g><g transform="translate(217.71484375 43.28515625) rotate(0 53.82421875 45.326171875)"><path d="M0.7062847577035427 1.071539107710123 C33.81397270043817 0.02108891920142919, 69.08449862535053 -2.204293051204149, 108.22043382748961 -1.1652757488191128 M-0.03442022018134594 0.5015516262501478 C27.172486612359354 0.16598710060861777, 53.98587118232681 0.39314666033533285, 107.3055444676429 0.21043509058654308 M107.44533407315612 -0.005517181009054184 C109.86487644498884 25.187015758844066, 109.80684738939344 54.4667717516757, 107.55652522668242 89.95499843731523 M106.88989457674325 0.37455147318542004 C106.79873473072126 20.925157331157973, 106.7065820755966 40.76915727787564, 106.864352138713 90.06786906532943 M109.17220306023955 92.33970207348466 C64.97349537838744 90.39874153135388, 23.756717475588076 90.17881457803814, -1.688533429056406 91.45518976822495 M106.69056931324303 91.39710080437362 C85.31690131475189 91.76193356409858, 63.329618280249996 91.71201258793663, 0.9443561751395464 89.669273911044 M-1.8295389451086521 88.97792441025376 C-2.3338519414159964 61.97012632957849, 0.9072294155862619 30.874990755006728, 0.7180459462106228 0.7958695329725742 M0.9221083838492632 89.7461405377835 C1.030526861369799 56.842423916520055, 0.8258673397900566 24.098678532439223, 0.2270140964537859 0.19744992069900036" stroke="#000000" stroke-width="1" fill="none"></path></g><g transform="translate(250.0390625 65.611328125) rotate(0 21.5 23)"><text x="21.5" y="18" font-family="Helvetica, Segoe UI Emoji" font-size="20px" fill="#000000" text-anchor="middle" style="white-space: pre;" direction="ltr">tree</text><text x="21.5" y="41" font-family="Helvetica, Segoe UI Emoji" font-size="20px" fill="#000000" text-anchor="middle" style="white-space: pre;" direction="ltr">sitter</text></g><g transform="translate(435.78515625 63.94140625) rotate(0 57.3125 51.486328125)"><path d="M0.920167151838541 1.3885863982141018 C24.454173872875984 0.6080342829716392, 46.21053548282944 -1.0928094088542275, 115.40939599648118 -0.4208538569509983 M0.6299796085804701 -0.25431421212852 C39.9080601913156 -0.1481432463345118, 80.5457580073271 -0.18726016537519174, 115.13917130045593 -0.4371556919068098 M114.33209401741624 1.1353146992623806 C113.62212944700215 32.44824136430907, 113.36697376443837 63.31316616778349, 115.3926767744124 103.49823391065001 M113.7011148314923 -0.8609690349549055 C115.56413942626263 22.03810304548315, 115.90851128152157 42.626416535222965, 114.84952580742538 103.05790648050606 M114.23563236370683 103.80748474225402 C88.40083725352306 102.65075854728697, 67.6060239853803 105.62646667430876, 1.8486481346189976 103.06676244363189 M114.91642844490707 102.51512035913765 C88.54584492098074 103.01657470510574, 61.71786202876828 104.17232396648498, 0.9937925916165113 102.33484617061913 M1.7749472297728062 101.45038461312652 C-2.265401179840046 69.89142667552878, -2.675502235938984 36.23480867323377, 1.4566313661634922 1.0526760779321194 M0.5231738667935133 103.09838023968041 C-0.1982291296874612 64.02410244512649, -0.4940969900046914 24.40334828643681, -0.7296030540019274 -0.6690197270363569" stroke="#000000" stroke-width="1" fill="none"></path></g><g transform="translate(445.375 88.267578125) rotate(0 48 23)"><text x="48" y="18" font-family="Helvetica, Segoe UI Emoji" font-size="20px" fill="#000000" text-anchor="middle" style="white-space: pre;" direction="ltr">elp_syntax</text><text x="48" y="41" font-family="Helvetica, Segoe UI Emoji" font-size="20px" fill="#000000" text-anchor="middle" style="white-space: pre;" direction="ltr">AST</text></g><g transform="translate(432.09765625 210.59765625) rotate(0 64.224609375 50.0546875)"><path d="M1.8227475844323635 1.8486481346189976 C25.82344546921304 -2.325820419341544, 51.57304090648395 -0.5406394930186071, 129.03207563981414 -0.9150717817246914 M0.9788691718131304 0.9937925916165113 C41.557914778809206 0.49932983522208807, 85.06271302557579 0.7808698118189203, 129.3366923648864 -0.7611358184367418 M129.04844927415252 1.4566313661634922 C129.79587075079587 23.880243945561233, 130.7261191305032 46.05306688262499, 129.49556648358703 100.36082297936082 M129.4464483577758 -0.7296030540019274 C128.61582697326986 38.01762570382853, 129.49672920400945 76.31807521056035, 129.06077370233834 100.47847932390869 M127.52283489331603 98.63422900810838 C103.53994797540145 101.05650447107408, 74.9141129068521 99.14132986761186, -0.6541972197592258 101.35538000240922 M128.61015066690743 100.45393603853881 C77.96968454766538 100.12884537186102, 27.57784704475634 101.01550696100668, 0.741048963740468 99.28390371613204 M-0.04474497213959694 100.22482484951615 C1.2695480079503612 72.6461737548263, -1.0413764028696462 47.22810997092746, 1.967916365712881 1.2908893264830112 M0.5303398687392473 100.14517891220748 C-0.2788090784914674 67.26148271003913, -0.675818987644452 34.56711565520963, 0.6038975436240435 0.7383282762020826" stroke="#000000" stroke-width="1" fill="none"></path></g><g transform="translate(445.68359375 227.546875) rotate(0 50 34.5)"><text x="0" y="18" font-family="Helvetica, Segoe UI Emoji" font-size="20px" fill="#000000" text-anchor="start" style="white-space: pre;" direction="ltr">erl_ast</text><text x="0" y="41" font-family="Helvetica, Segoe UI Emoji" font-size="20px" fill="#000000" text-anchor="start" style="white-space: pre;" direction="ltr">Abstract</text><text x="0" y="64" font-family="Helvetica, Segoe UI Emoji" font-size="20px" fill="#000000" text-anchor="start" style="white-space: pre;" direction="ltr">Forms AST</text></g><g transform="translate(202.42578125 10) rotate(0 219.416015625 178.443359375)"><path d="M-0.7671118989803938 0.0949979736562857 C122.19386304242153 1.021973846728466, 243.90673084114394 1.523762043140875, 439.7997713235777 -0.01809393678242901 M437.8925590523289 0.3552726119845631 C440.0430119348121 103.6252291435981, 439.460420028585 204.92130343609531, 439.80471469642936 355.8218893733755 M438.97224807703213 357.8249975251029 C325.97383366287687 355.78596456980944, 214.40015163026368 355.3413716315615, -0.4882582266339646 356.870514776888 M0.3905963922725734 355.91505615814515 C-0.9386770504939831 222.83640640505334, -0.7404895421664146 88.38579630033773, -1.0338474915877613 0.9246098109172335" stroke="#000000" stroke-width="1.5" fill="none" stroke-dasharray="12 8"></path></g><g transform="translate(405.26171875 36.87890625) rotate(0 19 11.5)"><text x="0" y="18" font-family="Helvetica, Segoe UI Emoji" font-size="20px" fill="#000000" text-anchor="start" style="white-space: pre;" direction="ltr">ELP</text></g><g transform="translate(429.4765625 448.48828125) rotate(0 37.92578125 35.95703125)"><path d="M29.855841430149745 1.4188623601146872 C36.908963972712435 -0.9422800037788583, 47.180309092555866 -0.7738691761458902, 53.99469699543955 2.088620377378099 C60.80908489832323 4.9511099309020885, 67.17899829089762 11.994622208868591, 70.74216884745182 18.593799681258623 C74.30533940400602 25.192977153648656, 76.52074821597688 34.4976783577316, 75.37372033476471 41.68368521171829 C74.22669245355254 48.86969206570498, 69.14705627106667 56.78014890677894, 63.86000156017883 61.70984080517874 C58.57294684929099 66.63953270357854, 50.967728917109234 70.30237153360001, 43.65139206943768 71.2618366021171 C36.33505522176612 72.22130167063419, 26.858233974909062 70.91211524242684, 19.961980474149467 67.46663121628126 C13.065726973389872 64.02114719013568, 5.516857023148432 57.123616488877076, 2.2738710648801046 50.58893244524367 C-0.9691148933882228 44.054248401610266, -1.5191118754426252 35.42127682467523, 0.5040647245395036 28.258526954480843 C2.5272413245216323 21.095777084286453, 8.715844997332994 12.21170852199409, 14.412930664772876 7.612433224077343 C20.11001633221276 3.013157926160596, 30.5381166067742 1.7041358677901985, 34.6865787291788 0.6628751669803634 C38.8350408515834 -0.3783855338294717, 39.3659381880074 1.004538292839391, 39.30370339920047 1.3648690192183324" stroke="#000000" stroke-width="1.5" fill="none" stroke-dasharray="12 8"></path></g><g transform="translate(439.40234375 472.9453125) rotate(0 28 11.5)"><text x="28" y="18" font-family="Helvetica, Segoe UI Emoji" font-size="20px" fill="#000000" text-anchor="middle" style="white-space: pre;" direction="ltr">.beam</text></g><g transform="translate(550.00390625 448.59765625) rotate(0 34.640625 33.365234375)"><path d="M42.108159010591095 1.3253874978634244 C49.017471399667315 2.568167805487506, 57.020737832109184 7.623400583308018, 61.536156331606605 12.943061357232882 C66.05157483110402 18.262722131157744, 69.11601282714263 26.328742191550834, 69.20067000757561 33.24335214141261 C69.2853271880086 40.157962091274385, 66.39033556836118 48.975718769717346, 62.04409941420453 54.430721056403534 C57.697863260047875 59.88572334308972, 50.09424394770036 64.4506555674991, 43.123253082635685 65.97336586152973 C36.15226221757101 67.49607615556036, 26.71428031931913 66.50601692375922, 20.21815422381647 63.566982820587334 C13.72202812831381 60.62794871741545, 7.444605388872706 54.71715395923616, 4.14649650961972 48.33916124249843 C0.8483876303667337 41.9611685257607, -1.2527032684338864 32.14782878434946, 0.42950094829855345 25.29902652016097 C2.111705165030993 18.450224255972486, 8.3115634696698 11.551208078617382, 14.239721810014359 7.246347657367519 C20.16788015035892 2.9414872361176556, 30.87064678137083 0.4621977902746526, 35.99845099036592 -0.5301360073382071 C41.126255199361005 -1.5224698049510668, 42.946402388600525 0.5449412060591587, 45.006547063984875 1.2923448716903607 C47.066691739369226 2.0397485373215627, 48.307818774429165 3.326556966457042, 48.35931904267203 3.9542859864490048 M47.122457593647376 1.5645450787709976 C53.64692165807351 3.689273315651217, 60.41925935215311 10.131628539292173, 63.95630342360561 16.220055069522786 C67.4933474950581 22.3084815997534, 69.11292552705689 31.087951278757586, 68.34472202236236 38.09510426015467 C67.57651851766784 45.102257241551754, 64.53125159772084 53.55998398642536, 59.34708239543846 58.26297295790529 C54.162913193156086 62.96596192938522, 44.65568911439638 65.98823080300576, 37.23970680866808 66.31303808903425 C29.823724502939786 66.63784537506274, 20.573310777012054 64.24902311897631, 14.851188561068682 60.2118166740762 C9.12906634512531 56.174610229176096, 5.1877270515420815 48.75666080388113, 2.9069735130078413 42.08979941963363 C0.6262199744736008 35.422938035386125, -1.3869276995044362 26.289524116647858, 1.1666673298632375 20.210648368591166 C3.720262359230911 14.131772620534473, 11.73237697796581 9.157675083932318, 18.228543689213883 5.616544931293472 C24.724710400461955 2.0754147786546255, 35.106377703127635 -0.5282698426694559, 40.14366759735168 -1.0361325472419125 C45.180957491575725 -1.5439952518143691, 47.46057959143651 2.002233228158804, 48.452283054558166 2.569368703858732 C49.44398651767982 3.1365041795586603, 46.59035445812068 2.058562793872405, 46.093888376081615 2.366680306957658" stroke="#000000" stroke-width="1" fill="none"></path></g><g transform="translate(573.28515625 472.408203125) rotate(0 14 11.5)"><text x="14" y="18" font-family="Helvetica, Segoe UI Emoji" font-size="20px" fill="#000000" text-anchor="middle" style="white-space: pre;" direction="ltr">.etf</text></g><g><g transform="translate(130.9453125 80.36328125) rotate(0 42.3768044255674 -1.1510412326780965)"><path d="M-0.7737652637064456 0.7769556261599064 C13.431710583219925 0.7067709423601628, 71.0112041456004 -0.7386460565030574, 85.52737411484122 -1.2928524993360042 M1.020869243508205 0.13925338455475877 C15.00974354313376 -0.20422105691395692, 70.25619206246299 -2.7969111823197457, 84.38246959275565 -3.0790380915161224" stroke="#000000" stroke-width="1" fill="none"></path></g></g><g><g transform="translate(494.8598955656423 144.28320312500006) rotate(0 -0.6413310659609124 32.2495286184037)"><path d="M0.07686595693230625 -0.0033929206430911574 C-0.25195182277009665 11.052266540378323, -1.7109424955271568 54.5883157871663, -1.8451443389502629 65.54983538612717 M-1.3419181450176985 -1.0507781493198127 C-1.280657749950223 9.688455628501243, 0.540837814997471 52.76568512146357, 0.5624822070284474 63.55083632444026" stroke="#000000" stroke-width="1" fill="none"></path></g><g transform="translate(494.8598955656423 144.28320312500006) rotate(0 -0.6413310659609124 32.2495286184037)"><path d="M-10.392246061748976 34.65412690311599 C-6.7755002346737445 45.18499529574403, -3.0143894668295337 54.51449927527476, 0.0677923289521325 64.37573170264247 M-10.732209563068265 36.275954719706654 C-8.45116450320856 41.337733130974414, -5.778925563500076 48.29028368300505, -0.353965374694885 63.709618957461736" stroke="#000000" stroke-width="1" fill="none"></path></g><g transform="translate(494.8598955656423 144.28320312500006) rotate(0 -0.6413310659609124 32.2495286184037)"><path d="M10.122786925874115 34.15071464405206 C7.363312670320028 44.8511073720694, 4.751492824828976 54.33699478997199, 0.0677923289521325 64.37573170264247 M9.782823424554826 35.772542460642725 C7.419220267142137 41.05078021267975, 5.450136914477068 48.117222784365296, -0.353965374694885 63.709618957461736" stroke="#000000" stroke-width="1" fill="none"></path></g></g><g><g transform="translate(444.1969704683561 208.71484375) rotate(0 0.7904763115896003 -20.65774430814662)"><path d="M-0.25665575042366984 -0.2297287009656429 C-0.006294049069485219 -6.561959435790767, 1.5857942310710693 -32.63625598177309, 1.570360796927207 -39.165472342818916 M1.809461251264438 -1.3959402143117041 C1.9978491099381683 -7.997530977344131, 1.1777550980345601 -34.98324678710657, 1.2344000692113424 -41.0857599153276" stroke="#000000" stroke-width="1" fill="none"></path></g><g transform="translate(444.1969704683561 208.71484375) rotate(0 0.7904763115896003 -20.65774430814662)"><path d="M7.869266109014401 -20.673323739870447 C6.919584659290534 -29.504306871676857, 4.380895831579346 -35.7111714049428, 1.6414540472194823 -42.038832395198845 M8.330522650961298 -21.635428529348538 C6.602127714879941 -27.304730119137044, 4.763099346735671 -30.075509542093382, 1.9972349508912304 -41.986095789822684" stroke="#000000" stroke-width="1" fill="none"></path></g><g transform="translate(444.1969704683561 208.71484375) rotate(0 0.7904763115896003 -20.65774430814662)"><path d="M-5.65737959988466 -20.491233641899896 C-2.470422962265639 -29.348947777304332, -0.8742522493565075 -35.61147407587775, 1.6414540472194823 -42.038832395198845 M-5.196123057937763 -21.453338431377986 C-4.127153242389707 -27.26363303029683, -3.168343564075939 -30.072075789378705, 1.9972349508912304 -41.986095789822684" stroke="#000000" stroke-width="1" fill="none"></path></g></g><g><g transform="translate(462.5625 444.24609375) rotate(0 0.36521305015918415 -67.06073454012625)"><path d="M0.8424028135836126 0.42621449455618854 C0.8438169457018377 -21.62393277660012, 1.1017614580690862 -110.43125129714608, 0.7186167217791082 -132.72253550067543 M-0.17447443862445655 -0.39562684114091096 C-0.30572980095632374 -22.764940712703392, 0.1296142296027394 -112.61011659617536, 0.2955012870859357 -134.54768357480876" stroke="#000000" stroke-width="1" fill="none"></path></g><g transform="translate(462.5625 444.24609375) rotate(0 0.36521305015918415 -67.06073454012625)"><path d="M11.10293292830302 -104.63147632085996 C7.809406673992275 -118.33241552330826, 3.184504490305555 -127.42528515960521, 0.8996324529778215 -136.53217480759136 M9.423555724495785 -105.84848129988926 C8.851165803920441 -112.04788545719511, 6.0467607422534115 -119.34489585613964, 1.0001916224043819 -134.4405074180942" stroke="#000000" stroke-width="1" fill="none"></path></g><g transform="translate(462.5625 444.24609375) rotate(0 0.36521305015918415 -67.06073454012625)"><path d="M-9.41793112888741 -104.75039113133185 C-5.341239273220539 -118.55267573715017, -2.595505508157557 -127.6028338299926, 0.8996324529778215 -136.53217480759136 M-11.097308332694645 -105.96739611036115 C-6.925142167294674 -112.18045622227515, -4.985428859668577 -119.4499752867823, 1.0001916224043819 -134.4405074180942" stroke="#000000" stroke-width="1" fill="none"></path></g></g><g><g transform="translate(530.8671875 300.3203125) rotate(0 19.698261128938782 76.64753663763403)"><path d="M0.2740852810442447 -0.8293987132608891 C6.848787631342807 24.83244004870454, 33.926614600171646 128.2368023854991, 40.437680933624506 154.12447198852897 M-1.0411586757469924 1.3495630169380455 C5.367231354021156 26.649377455261227, 33.37441956818414 127.12041331673353, 39.959359366400165 152.34410050247797" stroke="#000000" stroke-width="1" fill="none"></path></g><g transform="translate(530.8671875 300.3203125) rotate(0 19.698261128938782 76.64753663763403)"><path d="M21.304840287323547 129.30629390671876 C30.410739780505644 136.81943091640608, 37.63682909413479 146.04034950960164, 38.29896881426684 151.6317584749032 M23.330327287446213 127.58927682794658 C27.45906537512709 133.65680728291636, 30.198206741406594 137.9419776061471, 39.50426210644655 152.3442652813811" stroke="#000000" stroke-width="1" fill="none"></path></g><g transform="translate(530.8671875 300.3203125) rotate(0 19.698261128938782 76.64753663763403)"><path d="M41.11269776764552 123.94263988869224 C42.64983015072718 133.55237826767947, 42.30029405472172 144.8246562119718, 38.29896881426684 151.6317584749032 M43.13818476776819 122.22562280992005 C42.75020618003534 129.65087346586205, 40.99495762063032 135.15305338275655, 39.50426210644655 152.3442652813811" stroke="#000000" stroke-width="1" fill="none"></path></g></g><g transform="translate(715.65234375 16.37890625) rotate(0 184.310546875 180.912109375)"><path d="M-0.2615111352643838 0.014087334176888263 C100.81358678698861 0.14081751313909358, 203.3042117597041 0.19207782514073485, 367.42263085959996 0.3479070504691732 M369.43432985488346 -1.0049697468410845 C368.0672201792269 76.88296341631364, 367.91713219736977 153.88138035392632, 368.1949512867941 362.7109783378043 M367.8115601682969 360.7320605096948 C227.75516309466332 360.1799287271174, 87.5073921827252 360.2502917165648, -0.052551695793400924 362.65839095049364 M-1.041270875928961 361.9682845206212 C0.18878635847622216 264.10153974008426, 0.35303970921621786 166.61892527546814, -0.32578616423841616 -0.140908090086133" stroke="#000000" stroke-width="1.5" fill="none" stroke-dasharray="12 8"></path></g><g transform="translate(809.96484375 30.58984375) rotate(0 70.5 11.5)"><text x="0" y="18" font-family="Helvetica, Segoe UI Emoji" font-size="20px" fill="#000000" text-anchor="start" style="white-space: pre;" direction="ltr">ELP consumers</text></g><g transform="translate(746.03515625 206.875) rotate(0 65.625 30.509765625)"><path d="M-1.3545736633241177 1.374697681516409 C36.47135802521368 0.32448683923576027, 76.794424876105 -1.5702235823264346, 131.59851855412117 -0.6608740128576756 M-0.7253400702029467 -0.890528766438365 C31.773737844312542 -0.09779512009117708, 65.60539441788565 0.11239559331443205, 131.99567603878668 0.5280682761222124 M132.33289260044685 0.30871617421507835 C129.48336605942953 22.451995276586235, 131.04213325894582 42.351007868947626, 131.41727525368324 59.563301797956214 M130.81559991650275 -0.9264304917305708 C130.95002547493857 12.664172594334374, 131.21797177782935 25.966172851419827, 130.91246861033133 60.041820557788 M130.7681959308683 59.85531019791959 C81.59140693978401 60.16684394830371, 27.40906756417823 61.96601932996417, -0.757708128541708 61.69045841321348 M131.9751445632427 60.472743542864904 C102.8771498051937 59.92068279033991, 73.7673733546398 60.88933831697794, -0.744822146371007 61.70970377512275 M-1.7209048829972744 59.21992408856748 C-0.38382550250426006 46.07358523060465, 1.79563108910188 32.478634159507045, 0.561483446508646 -0.632553581148386 M0.3150004129856825 60.40446648187934 C0.3002876201811159 49.06802991056683, -0.0008388003167784097 37.172116486837325, -0.9008178133517504 0.6233316976577044" stroke="#000000" stroke-width="1" fill="none"></path></g><g transform="translate(766.96484375 216.58984375) rotate(0 46.5 11.5)"><text x="0" y="18" font-family="Helvetica, Segoe UI Emoji" font-size="20px" fill="#000000" text-anchor="start" style="white-space: pre;" direction="ltr">EqWAlizer</text></g><g><g transform="translate(767.91015625 202.78125) rotate(0 60.57114381835561 15.408027202435449)"><path d="M-0.7703398796030905 -0.9805225710233022 C1.885688350371954 -5.615993777933941, 7.13030642543852 -10.032012602338316, 8.342182008404915 -12.646341647477897 M0.2661118517369374 -0.8127207631616359 C3.475348220897626 -6.072891800528318, 7.314901923986342 -11.487675643510352, 8.924391702481024 -14.579532168333834 M10.195623341947794 -14.32347333803773 C39.40143490922092 -16.331730740484055, 71.35589092495829 -14.047168951678906, 120.08456379547715 -12.743684772402048 M8.325642703101039 -14.158891109749675 C48.90320265961309 -11.978236402755865, 87.2106488830028 -12.622774039616925, 121.91262751631439 -12.279816238209605 M121.07934433594346 -13.69221592321992 C118.61437348395593 7.999899993226281, 119.297398331363 23.87633294714891, 116.57552737370133 45.930293437093496 M120.84819775633514 -13.368760196492076 C120.69304493112831 2.6289116492733626, 120.39300715531826 20.064088167510498, 117.1248168926686 44.68466350622475" stroke="#000000" stroke-width="1" fill="none"></path></g></g><g><g transform="translate(794.1015625 182.25390625) rotate(0 53.16977679915726 19.43244841649951)"><path d="M1.4857199581567762 -0.2348432368108213 C-0.19298734644671708 -6.471477789105515, 1.62793466532624 -13.328914814170812, 1.188975973038667 -13.955071149823336 M0.1217705726266779 0.6792482095643944 C0.7748411355156388 -3.2736144785173473, 0.1396046850547703 -6.7416796361537, -0.01882076745705641 -15.893363180306608 M1.4184602461755276 -15.341394361108541 C40.45640607127658 -14.657793680024987, 81.50961069638012 -14.349902362994397, 104.80851339921355 -11.60517531260848 M-0.40103366784751415 -16.132118167355657 C41.14606949486566 -15.244546242848083, 79.45973081759308 -12.819962483984636, 105.92648557014763 -11.970512153580785 M106.29900812730193 -11.934155758470297 C106.54787122694789 11.573398909938549, 106.4899493552609 32.42493389948606, 105.46786605939269 54.74145919457078 M106.74058726616204 -12.46754384227097 C106.31938159829689 11.625965986680681, 105.92929349191209 36.75393343521181, 104.30410084314644 54.63070577196777 M104.04825870070957 54.99701500035467 C101.865835198359 53.28133035341306, 98.84821613041169 53.042439855948345, 92.65402935282458 50.2325673692158 M105.52219866150097 54.63003969152183 C100.43290189699367 52.49543838957412, 97.62276436253337 52.41790466346932, 92.60891063527723 50.361364816479565" stroke="#000000" stroke-width="1" fill="none"></path></g></g><g><g transform="translate(616.3359375 482.1796875) rotate(0 78.36419130472001 -104.8056228116667)"><path d="M-0.0037615321576596195 0.8270812176167965 C24.080196799586215 -20.479922590404747, 117.8025173800687 -92.49227066213886, 143.60776808038355 -127.38480430617929 C169.4130187806984 -162.2773379502197, 152.9571647701164 -194.70445983583727, 154.82774266973138 -208.52812064662575 M-1.4648750658798964 0.2156949115265161 C22.54273775746735 -21.465344710005446, 116.79689005752715 -93.96875706528934, 142.6793867964577 -129.07776069070212 C168.56188353538823 -164.1867643161149, 151.8019982931049 -196.99547165875944, 153.83010536770337 -210.43832684095017" stroke="#000000" stroke-width="1" fill="none"></path></g><g transform="translate(616.3359375 482.1796875) rotate(0 78.36419130472001 -104.8056228116667)"><path d="M168.0678369110573 -183.27166948768937 C165.05232478158837 -190.17834050828293, 162.16322010066017 -196.28004682613022, 152.2047609161865 -211.44034601162187 M166.82722708081192 -182.74878526221656 C162.81140609313405 -190.92381650264596, 159.80257353402587 -198.99479048069733, 153.1250441089552 -210.4503478740435" stroke="#000000" stroke-width="1" fill="none"></path></g><g transform="translate(616.3359375 482.1796875) rotate(0 78.36419130472001 -104.8056228116667)"><path d="M147.6370768055629 -181.34708020745893 C149.21799376989588 -188.68678782249378, 150.93265116530753 -195.22217115945855, 152.2047609161865 -211.44034601162187 M146.39646697531754 -180.82419598198612 C148.0445612834224 -189.53925512912753, 150.68750266795809 -198.1426294432436, 153.1250441089552 -210.4503478740435" stroke="#000000" stroke-width="1" fill="none"></path></g></g><g transform="translate(10 404.5703125) rotate(0 69.05078125 62.82421875)"><path d="M-1.7836514748632908 1.3596568740904331 C52.86086419247586 2.006818314977427, 107.61414069355524 0.3425516094644263, 136.1697714291513 -1.4867809377610683 M0.5900025088340044 0.011103926226496696 C38.64778495387145 0.2727178814467335, 77.2756071480544 1.9043478848990345, 138.48874214477837 -0.4513669032603502 M139.41063236817718 -1.8883932195603848 C140.3472122808006 37.197966245240245, 137.07383212046886 78.41586028645689, 136.2312389574945 127.26071721687913 M138.57707479782403 -0.5458717364817858 C138.4768247125628 28.03846244641609, 137.37909687738443 54.973136518840334, 137.38832244463265 124.83772486262023 M139.338463421911 124.09283906593919 C97.13228791323927 122.82861994174266, 52.79927753518277 126.2970055189445, -1.5075597800314426 126.23029560223222 M139.019791694358 125.48987835459411 C104.64838701316185 124.32332483161983, 69.8417730576737 124.01076004137096, -0.7854443471878767 125.46435439400375 M0.9123172722756863 124.11548751965165 C-1.5959944625497156 87.60011500385153, -1.4279302259087854 48.97140401759242, -1.6536804474890232 -0.8088807426393032 M0.7519544679671526 125.24256074242294 C0.8352922066063913 98.08888763573923, 1.6261561377854379 69.49978781701938, 0.021946163848042488 -0.636724891141057" stroke="#364fc7" stroke-width="1" fill="none"></path></g><g transform="translate(47.96484375 434.58984375) rotate(0 19 23)"><text x="0" y="18" font-family="Helvetica, Segoe UI Emoji" font-size="20px" fill="#364fc7" text-anchor="start" style="white-space: pre;" direction="ltr">ELP</text><text x="0" y="41" font-family="Helvetica, Segoe UI Emoji" font-size="20px" fill="#364fc7" text-anchor="start" style="white-space: pre;" direction="ltr">CLI</text></g><g><g transform="translate(78.08984375 402.734375) rotate(0 66.6701992316791 -147.63995679873508)"><path d="M1.1027533672749994 -0.9922082684934139 C2.477772671232621 -37.18004838849107, -13.403073121855657 -168.41180571938554, 8.975609054416418 -217.64330301508306 C31.354291230688496 -266.8748003107806, 114.01270808205008 -283.30697344367707, 135.37484642490745 -296.3811920426786 M0.22256015575490906 1.1012784452084454 C1.333611274228121 -34.9148431927121, -15.158764364157495 -167.14376287134053, 7.772766156857833 -216.5728110655304 C30.704296677873163 -266.0018592597203, 116.12902606255376 -282.3617365513401, 137.81174328184687 -295.47301071993076" stroke="#364fc7" stroke-width="1" fill="none"></path></g></g><g transform="translate(217.16015625 497.5625) rotate(0 59.587890625 53.658203125)"><path d="M-0.892611388117075 0.7556842006742954 C38.27143280589735 0.06439463986338523, 74.500536661777 -0.474650813208209, 120.1344885788858 1.7614726461470127 M-0.8892871420830488 -0.7796354908496141 C36.242668634643636 -0.20954945392113555, 71.63643662145333 -0.5502590805957877, 118.36293378658593 -0.9599064607173204 M118.89897012338042 -1.9498930536210537 C119.38905094856506 36.68550913399159, 118.63217316860442 73.44536581989524, 119.91752135381103 107.85295731201768 M118.3266631681472 0.221070883795619 C118.57680437085692 31.46864199371703, 119.45379653689925 62.181421157227305, 119.30035206861794 106.47439175657928 M119.92141329869628 107.72102886810899 C93.46812444613533 105.08508202741133, 68.35992455231462 107.51511463830458, -0.21958518400788307 107.71998900547624 M118.3238196093589 108.27605086378753 C74.42441555490731 107.52353124281996, 30.898762187101227 107.58213268181913, -0.013921467587351799 107.31324434094131 M-0.8424937762320042 107.29933375492692 C0.8713028682803998 81.36514275581503, 2.3210062040424235 54.54490820811915, 0.5848633013665676 -0.0635797344148159 M-0.4116727989166975 107.45872974209487 C0.0015321573614346384 80.9316015734461, -0.4396710196138156 55.09172735682368, -0.34960117749869823 0.40156096033751965" stroke="#364fc7" stroke-width="1" fill="none"></path></g><g transform="translate(247.748046875 539.720703125) rotate(0 29 11.5)"><text x="29" y="18" font-family="Helvetica, Segoe UI Emoji" font-size="20px" fill="#364fc7" text-anchor="middle" style="white-space: pre;" direction="ltr">Erlang</text></g><g><g transform="translate(336.31640625 585.51953125) rotate(0 115.87541183456779 -34.75666159872037)"><path d="M-0.4195214129984378 0.4818731524050235 C28.333460130542516 0.20252912615736318, 133.34021199370423 11.935908514012894, 172.10518974289297 -0.6945145629346371 C210.87016749208172 -13.324937639882169, 222.33258824969332 -63.040802179028596, 232.17034508213402 -75.30066530928016 M1.5610911158379168 -0.3107473879214375 C30.165819805925715 -0.5135804516232262, 132.60343684332136 12.90262438146708, 170.9990876442846 0.5910835114959627 C209.39473844524784 -11.720457358475153, 221.87422613070967 -61.33864763837618, 231.93499592161737 -74.17999260774813" stroke="#364fc7" stroke-width="1" fill="none"></path></g><g transform="translate(336.31640625 585.51953125) rotate(0 115.87541183456779 -34.75666159872037)"><path d="M228.5856202658187 -44.97053684224001 C227.84295979444263 -50.66215409093159, 229.1205425109946 -60.2847275764426, 233.0551424308773 -75.58784412122331 M227.95140953584718 -44.95668329787067 C228.9948333160902 -56.60843282113849, 230.79505559038122 -66.47002281568138, 232.4554894606676 -73.43636911450885" stroke="#364fc7" stroke-width="1" fill="none"></path></g><g transform="translate(336.31640625 585.51953125) rotate(0 115.87541183456779 -34.75666159872037)"><path d="M210.45911422528496 -54.59081652363875 C214.60969538687974 -57.663836455264615, 220.70182988956293 -64.73118310226701, 233.0551424308773 -75.58784412122331 M209.82490349531344 -54.57696297926941 C217.85009853090824 -62.525512150034025, 226.53802426209649 -68.73159161928777, 232.4554894606676 -73.43636911450885" stroke="#364fc7" stroke-width="1" fill="none"></path></g></g><g><g transform="translate(128.671875 533.2109375) rotate(0 45.213535367655595 19.831663692528025)"><path d="M1.0801363371312618 -0.7388703368604184 C3.8613087477783363 5.178704633067051, 2.385627291848264 28.958103765795627, 17.24543816074729 35.81030118241906 C32.105249029646316 42.66249859904249, 78.06958705410362 39.58955321883162, 90.23900155052543 40.37431416288018 M0.188069184785709 1.4876187909487637 C2.796482306585337 7.061561805789049, 1.6304197823659816 28.08641354668575, 16.502126637762412 34.219775179410355 C31.37383349315884 40.353136812134956, 77.09102040118538 37.60865020273564, 89.41831031716428 38.28778858729638" stroke="#364fc7" stroke-width="1" fill="none"></path></g></g><g><g transform="translate(554.56640625 129.703125) rotate(0 89.57451451358855 46.00625730598813)"><path d="M0.5728066183626652 -0.4517250157892704 C21.558458421379328 5.657265693197648, 95.98552016193668 19.99985663716992, 125.84582533612847 35.69964400753379 C155.70613051032026 51.39943137789766, 170.9275192874173 84.1379500053823, 179.7346376635134 93.74699920639395 M-0.585608636336401 -1.734484594417736 C20.351383605701848 4.598838125613208, 95.53739508112582 21.24408081615654, 125.51820536146872 36.85584720646031 C155.4990156418116 52.46761359676408, 170.4328631507388 82.89157639597542, 179.29925304572097 91.93611374740489" stroke="#0b7285" stroke-width="1" fill="none"></path></g><g transform="translate(554.56640625 129.703125) rotate(0 89.57451451358855 46.00625730598813)"><path d="M153.29605296966457 77.70630228473047 C160.14170583703765 81.4326955714592, 170.47147405414782 84.45710488873485, 180.33186006839387 92.90970519055612 M153.96890750680888 75.06766477739612 C161.16058319201022 81.50767954195092, 169.2584116833831 86.88289609261437, 178.7641050192993 91.80573034715839" stroke="#0b7285" stroke-width="1" fill="none"></path></g><g transform="translate(554.56640625 129.703125) rotate(0 89.57451451358855 46.00625730598813)"><path d="M169.61629083890514 65.26564963797415 C171.55953563489058 72.73155590164487, 177.08583009633 79.41757536032287, 180.33186006839387 92.90970519055612 M170.28914537604945 62.627012130639805 C172.4904441905156 72.85305819105804, 175.50243583497686 82.1051256882234, 178.7641050192993 91.80573034715839" stroke="#0b7285" stroke-width="1" fill="none"></path></g></g><g transform="translate(588.71875 109.515625) rotate(0 53.5 11.5)"><text x="0" y="18" font-family="Helvetica, Segoe UI Emoji" font-size="20px" fill="#0b7285" text-anchor="start" style="white-space: pre;" direction="ltr">future (H2+)</text></g><g transform="translate(398.7109375 562.5625) rotate(0 45 11.5)"><text x="0" y="18" font-family="Helvetica, Segoe UI Emoji" font-size="20px" fill="#364fc7" text-anchor="start" style="white-space: pre;" direction="ltr">initial (H1)</text></g><g><g transform="translate(327.10546875 93.64453125) rotate(0 47.30531120828351 6.497960054213181)"><path d="M-0.23013471141457553 0.7673453070223331 C15.529715830336015 2.6430544830858707, 78.4142920953532 9.744776461273432, 94.27297152504325 11.389735362678767 M-1.8100941642466932 0.12459764786995953 C14.332736701235794 2.1835136864427476, 80.46357696708601 10.974819876039401, 96.42071658081375 12.871322460556403" stroke="#000000" stroke-width="1" fill="none"></path></g><g transform="translate(327.10546875 93.64453125) rotate(0 47.30531120828351 6.497960054213181)"><path d="M68.44086461890271 17.707768750154997 C75.0571824976692 17.015252128090033, 81.88276135150281 16.312342515464792, 96.64359551004134 11.460115205580369 M66.41716364215841 19.637920326331283 C75.54132815429693 18.133345779399992, 83.14409743021224 14.982673298695644, 97.0077962566819 13.794356292197481" stroke="#000000" stroke-width="1" fill="none"></path></g><g transform="translate(327.10546875 93.64453125) rotate(0 47.30531120828351 6.497960054213181)"><path d="M71.02598317140318 -2.6499610951729746 C76.95138978270646 2.2744674931685065, 83.06307344011879 7.193460803550145, 96.64359551004134 11.460115205580369 M69.00228219465889 -0.7198095189966889 C77.41271243369388 3.4882817519726657, 84.28976201794282 6.052629734097127, 97.0077962566819 13.794356292197481" stroke="#000000" stroke-width="1" fill="none"></path></g></g></svg>